<?xml version="1.0" standalone="no"?>
<!DOCTYPE svg PUBLIC "-//W3C//DTD SVG 20010904//EN"
 "http://www.w3.org/TR/2001/REC-SVG-20010904/DTD/svg10.dtd">
<svg version="1.0" xmlns="http://www.w3.org/2000/svg"
 width="500.000000pt" height="500.000000pt" viewBox="0 0 500.000000 500.000000"
 preserveAspectRatio="xMidYMid meet">
<metadata>
Created by potrace 1.14, written by Peter Selinger 2001-2017
</metadata>
<g transform="translate(0.000000,500.000000) scale(0.100000,-0.100000)"
fill="#000000" stroke="none">
<path d="M2451 4921 c-45 -12 -49 -85 -11 -161 10 -19 18 -37 19 -40 1 -3 4
-15 7 -27 4 -13 10 -23 14 -23 4 0 14 -14 23 -32 17 -35 14 -82 -7 -124 -19
-35 -13 -44 29 -44 33 0 36 -3 70 -76 20 -42 35 -83 33 -92 -5 -25 -52 -43
-116 -47 -31 -1 -69 -5 -84 -9 -64 -14 -78 -14 -94 1 -14 15 -14 17 0 25 9 5
16 13 16 19 0 10 -40 28 -80 35 -52 10 -66 18 -105 62 -44 50 -87 72 -140 72
-33 0 -35 -2 -33 -29 1 -16 -3 -36 -10 -44 -16 -19 6 -44 46 -53 15 -3 51 -17
80 -30 45 -21 52 -27 42 -39 -7 -9 -37 -22 -66 -31 -78 -22 -114 -56 -114
-105 0 -24 7 -46 18 -57 43 -43 38 -69 -21 -108 -61 -41 -77 -63 -77 -111 0
-42 -6 -48 -40 -43 -20 3 -72 48 -85 74 -7 11 -17 20 -23 19 -14 -3 -74 66
-67 78 4 5 12 9 20 9 25 0 44 30 65 99 29 98 27 114 -21 162 -32 32 -43 38
-54 29 -8 -7 -49 -13 -90 -14 -71 -2 -78 0 -96 23 -16 20 -29 25 -61 25 -35 0
-46 -6 -70 -34 -33 -40 -33 -41 -10 -70 14 -18 28 -22 84 -22 57 -1 73 3 105
25 21 14 52 26 68 27 96 3 107 1 125 -15 24 -22 26 -73 5 -101 -8 -10 -15 -35
-15 -54 -1 -45 -16 -64 -63 -79 -41 -14 -43 -28 -11 -78 13 -20 11 -24 -19
-44 -44 -32 -47 -37 -47 -100 0 -50 3 -57 24 -67 17 -8 27 -22 32 -48 6 -32 4
-40 -15 -52 -11 -8 -21 -20 -21 -27 0 -13 40 -64 79 -99 73 -66 72 -65 66
-104 -3 -24 -17 -48 -40 -70 -42 -40 -46 -81 -15 -143 17 -33 20 -54 17 -127
-2 -48 0 -100 5 -117 5 -16 11 -39 13 -50 3 -11 16 -45 31 -74 14 -30 26 -62
27 -72 1 -11 5 -19 9 -19 4 0 8 -7 8 -15 0 -44 52 -108 73 -92 2 1 11 -4 20
-12 15 -11 15 -16 2 -41 -15 -30 -29 -38 -83 -46 -42 -7 -111 21 -113 45 -3
33 3 96 10 101 23 16 -14 210 -40 210 -5 0 -9 5 -9 10 0 6 -9 20 -19 32 -11
11 -17 27 -14 36 4 9 2 13 -4 9 -6 -4 -9 4 -7 19 4 42 -21 86 -84 147 -58 54
-92 104 -92 133 0 7 29 42 65 77 101 102 100 138 -7 192 -39 19 -77 35 -85 35
-7 0 -30 8 -51 19 -37 19 -58 20 -99 6 -34 -11 -42 -55 -10 -55 7 0 29 -5 50
-11 39 -11 50 -36 23 -58 -22 -18 -78 -32 -90 -22 -6 5 -15 11 -21 12 -31 10
-75 89 -75 134 0 13 -6 29 -12 34 -7 6 -35 29 -62 51 -30 26 -56 40 -70 38
-30 -4 -62 -71 -58 -119 5 -44 8 -45 48 -24 55 29 82 17 103 -46 17 -54 16
-119 -4 -164 -10 -22 -17 -43 -17 -47 1 -5 -3 -8 -9 -8 -5 0 -8 -4 -4 -9 5
-10 -28 -33 -53 -37 -7 -1 -15 11 -19 27 -3 16 -8 31 -12 33 -11 7 -37 -17
-53 -49 -22 -41 -7 -68 48 -84 37 -11 45 -18 53 -48 5 -19 6 -44 2 -55 -7 -19
-9 -18 -27 18 l-19 39 -75 0 c-78 1 -126 14 -147 42 -15 20 4 78 55 163 17 28
-53 -41 -110 -109 -32 -37 -35 -46 -26 -67 12 -27 30 -34 91 -38 24 -2 52 -8
63 -13 10 -6 43 -9 71 -7 49 3 54 2 66 -24 19 -35 30 -98 22 -122 -7 -21 -25
-30 -75 -37 -19 -2 -51 -9 -70 -16 -19 -6 -39 -12 -45 -12 -5 -1 -8 -7 -6 -15
2 -8 3 -25 3 -37 -2 -27 4 -31 58 -38 66 -8 101 -33 119 -85 9 -25 27 -62 40
-83 23 -37 23 -39 5 -53 -11 -8 -14 -14 -9 -13 42 6 61 -21 34 -48 -6 -6 -12
-31 -13 -54 -2 -24 -8 -45 -14 -47 -21 -7 -35 -42 -22 -57 6 -7 12 -26 14 -41
7 -47 14 -58 59 -86 45 -28 94 -43 167 -51 80 -9 95 -19 175 -118 40 -49 51
-69 42 -78 -6 -6 -16 -11 -22 -11 -17 0 -56 36 -48 44 3 3 2 6 -4 6 -6 0 -22
12 -37 26 -14 15 -26 23 -26 18 0 -5 -4 -3 -9 5 -5 8 -18 16 -28 17 -26 3 -76
14 -91 19 -19 7 -52 -13 -52 -30 0 -20 44 -59 97 -86 43 -22 73 -60 88 -109
13 -41 67 -105 119 -141 84 -57 88 -65 80 -134 -3 -33 -13 -77 -20 -99 -8 -21
-14 -49 -14 -61 0 -12 -9 -30 -19 -39 -19 -17 -21 -16 -46 24 -14 23 -42 57
-61 75 -19 18 -34 36 -34 39 0 3 -10 16 -22 29 -13 13 -35 38 -50 56 -20 23
-37 33 -59 35 -41 1 -46 -14 -16 -50 13 -16 29 -45 37 -64 19 -48 26 -57 80
-87 79 -44 93 -97 58 -213 -42 -139 -39 -175 21 -213 75 -48 81 -52 134 -102
23 -22 57 -53 75 -68 25 -21 32 -35 30 -55 -3 -24 -8 -27 -43 -30 -65 -6 -109
15 -140 63 -15 24 -38 54 -52 67 -14 12 -38 40 -54 62 -87 118 -122 149 -184
160 -14 3 -43 24 -65 48 -31 34 -38 38 -33 20 3 -12 8 -20 11 -18 3 3 17 -14
32 -37 30 -46 67 -87 78 -87 10 0 56 -69 59 -88 1 -9 7 -18 13 -20 18 -6 43
-65 51 -121 10 -73 32 -93 106 -98 32 -2 74 -4 93 -4 45 1 100 -32 100 -60 0
-22 -34 -76 -60 -95 -93 -70 -90 -96 18 -167 44 -29 60 -30 129 -9 17 6 33 9
35 7 2 -2 17 -5 35 -8 42 -7 50 -12 57 -43 6 -21 1 -31 -26 -54 -28 -24 -33
-35 -32 -70 2 -46 9 -59 26 -42 8 8 16 6 29 -9 11 -13 23 -18 31 -13 10 6 10
4 -1 -9 -12 -15 -11 -17 3 -17 9 0 16 5 16 11 0 8 4 8 13 2 6 -6 57 -9 112 -7
68 1 109 -2 128 -11 23 -11 29 -11 42 1 8 8 12 21 9 28 -5 13 30 33 49 28 4
-1 7 3 7 8 0 5 3 9 8 8 4 -1 24 4 44 11 21 7 50 10 65 7 37 -6 113 -44 113
-56 0 -5 10 -7 22 -5 12 3 28 -1 36 -7 7 -7 27 -13 42 -14 15 -1 39 -8 52 -15
29 -17 40 -18 56 -5 17 12 80 17 87 6 7 -11 50 -3 86 16 16 8 32 14 36 14 20
1 113 35 113 42 0 4 6 8 14 8 8 0 34 26 58 57 24 31 78 91 121 133 42 42 77
82 77 90 0 23 -36 77 -59 90 -11 6 -31 8 -44 5 -33 -9 -44 10 -51 87 -6 73 3
88 54 88 11 0 23 7 27 15 3 9 25 29 50 46 24 17 55 48 69 70 23 37 27 40 61
34 20 -3 44 -3 53 0 21 7 44 57 44 99 1 33 -5 32 83 24 22 -3 29 3 37 25 17
46 -1 62 -72 65 -65 3 -85 -5 -142 -58 -16 -15 -34 -27 -42 -27 -7 0 -21 -4
-30 -8 -13 -5 -18 -2 -19 11 -2 32 2 46 22 73 18 25 63 153 73 207 9 46 30 60
69 46 44 -16 67 -15 67 2 0 7 13 19 29 26 51 21 62 42 67 125 5 109 18 150 66
210 55 68 81 141 56 156 -28 17 -97 -8 -142 -52 -28 -27 -28 -29 -14 -66 18
-48 16 -68 -11 -118 -11 -22 -21 -48 -21 -57 0 -26 -8 -22 -46 19 -33 36 -34
36 -111 36 -43 1 -105 -3 -139 -7 -69 -8 -91 5 -79 46 14 43 213 224 257 233
84 17 153 66 188 135 10 19 26 44 37 55 19 22 73 59 73 50 0 -5 145 92 189
126 22 17 24 28 26 104 2 55 8 92 16 103 37 46 45 89 19 103 -8 4 -44 20 -80
35 -36 15 -71 35 -78 43 -7 9 -18 15 -24 13 -6 -2 -5 6 3 19 8 11 36 30 63 40
33 12 64 35 96 72 27 29 66 61 88 71 50 23 64 50 46 93 -13 31 -12 33 36 90
27 32 60 68 74 81 27 25 25 53 -2 47 -9 -2 -34 -11 -56 -18 -35 -13 -45 -12
-110 8 -39 12 -77 20 -83 18 -7 -3 -13 0 -13 5 0 17 -32 44 -45 38 -16 -6 -26
27 -14 45 4 8 6 23 3 35 -6 23 9 39 47 49 21 5 32 0 58 -25 17 -17 31 -38 31
-47 0 -10 6 -14 20 -10 13 3 18 1 13 -6 -4 -6 0 -8 10 -4 10 3 17 2 17 -4 0
-6 5 -7 12 -3 6 4 8 3 4 -4 -8 -14 21 -42 42 -41 12 0 11 3 -5 9 -13 5 -23 14
-23 20 0 6 5 8 10 5 15 -9 40 13 40 35 0 9 -10 26 -22 38 -105 99 -109 104
-104 133 2 16 1 31 -3 33 -14 9 -51 -6 -51 -20 0 -24 -19 -25 -48 -4 -19 14
-37 19 -57 16 -33 -6 -95 -62 -95 -86 0 -9 -11 -37 -23 -63 -14 -27 -20 -50
-15 -55 5 -5 2 -14 -7 -22 -45 -38 -114 69 -72 112 7 7 25 30 41 51 16 20 35
37 43 37 12 0 32 9 82 37 2 1 -13 19 -33 39 -20 20 -36 40 -36 44 0 4 -14 23
-31 41 -26 28 -30 38 -24 68 4 20 8 36 8 36 1 0 16 7 32 15 24 13 30 23 31 50
1 37 -14 80 -27 80 -5 0 -6 8 -2 18 3 10 -2 7 -13 -7 -10 -14 -26 -33 -35 -42
-10 -10 -25 -31 -33 -48 -9 -16 -23 -34 -33 -39 -24 -14 -18 -62 15 -119 l30
-51 -21 -20 c-12 -11 -35 -26 -52 -35 -16 -8 -47 -29 -69 -46 -22 -18 -47 -29
-59 -27 -26 4 -113 -38 -120 -58 -7 -17 1 -66 12 -81 26 -34 19 -57 -32 -110
-51 -53 -92 -73 -123 -61 -11 4 -14 13 -10 29 4 12 10 50 13 84 7 76 -11 132
-62 189 -19 21 -35 47 -35 56 0 9 -16 30 -35 46 -53 43 -47 50 114 140 8 5 17
14 19 22 4 10 -7 12 -50 7 l-54 -7 -2 56 c-1 30 -7 65 -14 77 -35 68 -35 67
-5 67 14 0 39 17 66 45 24 25 46 45 51 45 4 0 13 15 21 33 12 30 55 78 107
120 21 16 22 19 7 46 -14 27 -17 29 -47 20 -18 -5 -46 -18 -61 -30 -53 -39
-95 -33 -127 16 l-20 30 0 -38 c0 -30 7 -45 30 -67 29 -27 44 -31 65 -18 23
14 35 -7 21 -34 -8 -15 -12 -29 -9 -32 9 -8 -60 -46 -84 -46 -28 0 -33 8 -40
71 -3 28 -12 57 -19 64 -8 8 -10 15 -4 17 16 5 -9 76 -33 93 -21 15 -23 14
-48 -15 -31 -36 -31 -61 -3 -74 11 -5 25 -20 31 -33 10 -21 10 -23 -3 -12 -13
10 -17 10 -25 -2 -5 -8 -9 -10 -9 -5 0 5 -9 1 -20 -9 -12 -11 -37 -18 -67 -19
-36 -1 -53 -7 -69 -24 -17 -18 -23 -20 -33 -9 -6 8 -13 24 -15 38 -3 13 -5 26
-6 29 -2 3 -2 9 -1 13 1 4 -8 26 -19 49 -11 23 -20 57 -20 76 0 33 -37 109
-65 132 -8 6 -21 35 -31 63 -9 29 -19 57 -23 62 -3 6 -7 27 -8 47 -2 41 -17
75 -44 98 -29 24 -30 62 -3 118 13 28 29 54 34 57 5 3 7 11 5 18 -2 7 -6 24
-9 40 -7 29 -30 34 -85 18z m739 -2062 c0 -5 -10 -19 -22 -32 -24 -25 -68 -45
-68 -30 0 14 42 87 54 95 10 7 36 -17 36 -33z"/>
<path d="M4192 3316 c2 -22 9 -41 15 -43 9 -3 9 6 1 34 -14 52 -21 56 -16 9z"/>
<path d="M4201 3244 c0 -11 3 -14 6 -6 3 7 2 16 -1 19 -3 4 -6 -2 -5 -13z"/>
<path d="M943 2390 c-1 -11 3 -20 8 -20 6 0 7 5 4 10 -3 6 -1 10 4 10 6 0 11
5 11 10 0 19 -26 10 -27 -10z"/>
<path d="M985 2320 c10 -11 20 -20 23 -20 3 0 -3 9 -13 20 -10 11 -20 20 -23
20 -3 0 3 -9 13 -20z"/>
</g>
</svg>
